# xmcd
#
# Track frame offsets:
#	150
#	12622
#	27485
#	40597
#
# Disc length: 749 seconds
#
# Revision: 0
# Processed by: cddbd v1.4PL0 Copyright (c) Steve Scherf et al.
# Submitted via: audiograbber 1.82.02
#
DISCID=2a02eb04
DTITLE=Bettina Frank - Montagna my Love
DYEAR=2000
DGENRE=Country
TTITLE0=Montagna my Love
TTITLE1=Wunder ( gescheh´n von Zeit zu Zeit )
TTITLE2=Wenn ein Engel Tränen weint
TTITLE3=Manchmal fällt ein Stern vom Himmel
EXTD=
EXTT0=
EXTT1=
EXTT2=
EXTT3=
PLAYORDER=
